<mxfile host="app.diagrams.net" agent="Mozilla/5.0 (Windows NT 10.0; Win64; x64) AppleWebKit/537.36 (KHTML, like Gecko) Chrome/131.0.0.0 Safari/537.36" version="24.9.3">
  <diagram name="Страница — 1" id="nu6vy7_Vy7l5zZN2KRk_">
    <mxGraphModel dx="1235" dy="624" grid="1" gridSize="10" guides="1" tooltips="1" connect="1" arrows="1" fold="1" page="1" pageScale="1" pageWidth="1169" pageHeight="1654" math="0" shadow="0">
      <root>
        <mxCell id="0" />
        <mxCell id="1" parent="0" />
        <mxCell id="7BmQhzL24wm6-cY7r03M-1" value="Модуль захвата с видеокамеры" style="rounded=0;whiteSpace=wrap;html=1;" parent="1" vertex="1">
          <mxGeometry x="200" y="80" width="120" height="60" as="geometry" />
        </mxCell>
        <mxCell id="7BmQhzL24wm6-cY7r03M-2" value="Модуль распознавания лиц" style="rounded=0;whiteSpace=wrap;html=1;" parent="1" vertex="1">
          <mxGeometry x="450" y="80" width="120" height="60" as="geometry" />
        </mxCell>
        <mxCell id="7BmQhzL24wm6-cY7r03M-3" value="Шина данных" style="rounded=0;whiteSpace=wrap;html=1;" parent="1" vertex="1">
          <mxGeometry x="710" y="80" width="120" height="60" as="geometry" />
        </mxCell>
        <mxCell id="7BmQhzL24wm6-cY7r03M-5" value="" style="endArrow=classic;html=1;rounded=0;exitX=0.5;exitY=1;exitDx=0;exitDy=0;entryX=0.5;entryY=0;entryDx=0;entryDy=0;" parent="1" source="7BmQhzL24wm6-cY7r03M-8" target="7BmQhzL24wm6-cY7r03M-9" edge="1">
          <mxGeometry width="50" height="50" relative="1" as="geometry">
            <mxPoint x="655" y="449.5" as="sourcePoint" />
            <mxPoint x="785" y="449.5" as="targetPoint" />
          </mxGeometry>
        </mxCell>
        <mxCell id="7BmQhzL24wm6-cY7r03M-6" value="" style="endArrow=classic;html=1;rounded=0;entryX=0;entryY=0.5;entryDx=0;entryDy=0;exitX=1;exitY=0.5;exitDx=0;exitDy=0;" parent="1" source="7BmQhzL24wm6-cY7r03M-2" target="7BmQhzL24wm6-cY7r03M-3" edge="1">
          <mxGeometry width="50" height="50" relative="1" as="geometry">
            <mxPoint x="580" y="110" as="sourcePoint" />
            <mxPoint x="700" y="109.5" as="targetPoint" />
          </mxGeometry>
        </mxCell>
        <mxCell id="7BmQhzL24wm6-cY7r03M-8" value="Модуль открывания двери" style="rounded=0;whiteSpace=wrap;html=1;" parent="1" vertex="1">
          <mxGeometry x="800" y="300" width="120" height="60" as="geometry" />
        </mxCell>
        <mxCell id="7BmQhzL24wm6-cY7r03M-9" value="Arduino-устройство" style="rounded=0;whiteSpace=wrap;html=1;" parent="1" vertex="1">
          <mxGeometry x="800" y="420" width="120" height="60" as="geometry" />
        </mxCell>
        <mxCell id="7BmQhzL24wm6-cY7r03M-10" value="Модуль управления освщением" style="rounded=0;whiteSpace=wrap;html=1;" parent="1" vertex="1">
          <mxGeometry x="1110" y="300" width="120" height="60" as="geometry" />
        </mxCell>
        <mxCell id="7BmQhzL24wm6-cY7r03M-11" value="" style="endArrow=classic;html=1;rounded=0;entryX=0.5;entryY=0;entryDx=0;entryDy=0;exitX=0.5;exitY=1;exitDx=0;exitDy=0;" parent="1" target="7BmQhzL24wm6-cY7r03M-8" edge="1">
          <mxGeometry width="50" height="50" relative="1" as="geometry">
            <mxPoint x="970" y="250" as="sourcePoint" />
            <mxPoint x="780" y="329.5" as="targetPoint" />
          </mxGeometry>
        </mxCell>
        <mxCell id="7BmQhzL24wm6-cY7r03M-12" value="" style="endArrow=classic;html=1;rounded=0;entryX=0.5;entryY=0;entryDx=0;entryDy=0;exitX=0.5;exitY=1;exitDx=0;exitDy=0;" parent="1" target="7BmQhzL24wm6-cY7r03M-10" edge="1">
          <mxGeometry width="50" height="50" relative="1" as="geometry">
            <mxPoint x="970" y="250" as="sourcePoint" />
            <mxPoint x="980" y="410" as="targetPoint" />
          </mxGeometry>
        </mxCell>
        <mxCell id="7BmQhzL24wm6-cY7r03M-13" value="" style="endArrow=classic;html=1;rounded=0;exitX=1;exitY=0.5;exitDx=0;exitDy=0;entryX=0.417;entryY=0;entryDx=0;entryDy=0;entryPerimeter=0;" parent="1" source="7BmQhzL24wm6-cY7r03M-1" target="tPx9iCKAUbkW8tLPQnQZ-1" edge="1">
          <mxGeometry width="50" height="50" relative="1" as="geometry">
            <mxPoint x="360" y="110" as="sourcePoint" />
            <mxPoint x="420" y="110" as="targetPoint" />
          </mxGeometry>
        </mxCell>
        <mxCell id="tPx9iCKAUbkW8tLPQnQZ-1" value="Шина данных" style="rounded=0;whiteSpace=wrap;html=1;" vertex="1" parent="1">
          <mxGeometry x="330" y="170" width="120" height="60" as="geometry" />
        </mxCell>
        <mxCell id="tPx9iCKAUbkW8tLPQnQZ-2" value="" style="endArrow=classic;html=1;rounded=0;exitX=0.654;exitY=-0.051;exitDx=0;exitDy=0;entryX=0;entryY=0.5;entryDx=0;entryDy=0;exitPerimeter=0;" edge="1" parent="1" source="tPx9iCKAUbkW8tLPQnQZ-1" target="7BmQhzL24wm6-cY7r03M-2">
          <mxGeometry width="50" height="50" relative="1" as="geometry">
            <mxPoint x="380" y="90" as="sourcePoint" />
            <mxPoint x="440" y="150" as="targetPoint" />
          </mxGeometry>
        </mxCell>
        <mxCell id="tPx9iCKAUbkW8tLPQnQZ-3" value="Модуль идентификации лиц" style="rounded=0;whiteSpace=wrap;html=1;" vertex="1" parent="1">
          <mxGeometry x="710" y="190" width="120" height="60" as="geometry" />
        </mxCell>
        <mxCell id="tPx9iCKAUbkW8tLPQnQZ-4" value="" style="endArrow=classic;html=1;rounded=0;entryX=0.427;entryY=-0.02;entryDx=0;entryDy=0;exitX=0.426;exitY=1.002;exitDx=0;exitDy=0;entryPerimeter=0;exitPerimeter=0;" edge="1" parent="1">
          <mxGeometry width="50" height="50" relative="1" as="geometry">
            <mxPoint x="769.9" y="139.99999999999997" as="sourcePoint" />
            <mxPoint x="770.0200000000001" y="188.68" as="targetPoint" />
          </mxGeometry>
        </mxCell>
        <mxCell id="tPx9iCKAUbkW8tLPQnQZ-5" value="Шина данных" style="rounded=0;whiteSpace=wrap;html=1;" vertex="1" parent="1">
          <mxGeometry x="910" y="190" width="120" height="60" as="geometry" />
        </mxCell>
        <mxCell id="tPx9iCKAUbkW8tLPQnQZ-6" value="" style="endArrow=classic;html=1;rounded=0;entryX=0;entryY=0.5;entryDx=0;entryDy=0;exitX=1;exitY=0.5;exitDx=0;exitDy=0;" edge="1" parent="1" source="tPx9iCKAUbkW8tLPQnQZ-3" target="tPx9iCKAUbkW8tLPQnQZ-5">
          <mxGeometry width="50" height="50" relative="1" as="geometry">
            <mxPoint x="860" y="159.99999999999997" as="sourcePoint" />
            <mxPoint x="860.1200000000001" y="208.68" as="targetPoint" />
          </mxGeometry>
        </mxCell>
      </root>
    </mxGraphModel>
  </diagram>
</mxfile>
